<svg width="243" height="409" viewBox="0 0 243 409" fill="none" xmlns="http://www.w3.org/2000/svg">
<path d="M23.6173 241.541C28.8552 241.541 31.4741 245.324 31.4741 252.891C31.4741 263.95 36.421 277.192 46.3148 292.617C48.3517 295.818 52.1346 300.329 57.6635 306.15C63.1923 311.97 68.1392 316.481 72.5041 319.683C88.5087 330.16 102.767 335.398 115.28 335.398C130.121 335.398 142.342 332.779 151.945 327.541C157.765 324.921 163.003 319.392 167.659 310.952C170.278 304.258 171.587 296.982 171.587 289.124C171.587 273.991 166.204 260.894 155.437 249.835C144.67 238.776 125.028 227.135 96.511 214.912C67.1207 202.106 45.7328 188.864 32.3471 175.186C18.9614 161.507 12.2686 145.355 12.2686 126.729C12.2686 109.267 16.197 93.4063 24.0538 79.1458C36.5665 58.1916 59.4094 45.2407 92.5826 40.2932C93.1646 40.2932 95.929 40.1477 100.876 39.8567C105.823 39.5656 110.188 39.4201 113.971 39.4201C127.938 40.2932 139.432 42.3304 148.453 45.5317C157.474 48.7331 167.368 50.4793 178.134 50.7703C184.827 49.8972 190.211 47.7145 194.285 44.2221C198.358 40.7297 201.268 38.9836 203.014 38.9836C205.633 38.9836 207.961 40.7297 209.998 44.2221V128.475L208.252 131.531C204.469 134.151 200.541 134.151 196.467 131.531C195.303 128.621 194.721 127.02 194.721 126.729C194.721 113.633 185.991 98.3538 168.532 80.892C151.072 63.4301 132.74 54.6992 113.534 54.6992C100.439 54.6992 89.0907 58.6281 79.4879 66.486C69.8852 74.3438 64.9383 85.1119 64.6473 98.7904C64.6473 109.559 70.1762 119.599 81.2339 128.912C92.2916 138.225 111.643 148.12 139.287 158.597C148.89 162.672 156.31 166.018 161.548 168.638C166.786 171.257 173.77 175.04 182.499 179.988C191.229 184.935 198.504 190.902 204.324 197.886C210.144 204.871 215.673 212.729 220.91 221.46C227.312 234.556 230.513 248.089 230.513 262.059C230.513 287.96 220.037 309.06 199.086 325.358C178.134 341.656 150.49 349.804 116.153 349.804C100.148 349.804 87.0537 348.058 76.869 344.566C66.6842 341.073 57.0815 339.182 48.0607 338.891C41.0769 340.637 35.6935 342.965 31.9106 345.875C28.1277 348.786 25.2178 350.386 23.1808 350.677C20.5619 350.677 18.234 349.077 16.197 345.875V296.546V265.988C16.197 256.675 16.6335 250.272 17.5065 246.779C18.3795 243.287 20.4164 241.541 23.6173 241.541ZM194.721 75.2169C194.721 66.777 194.43 62.557 193.848 62.557C192.393 63.1391 191.084 63.7212 189.92 64.3032C187.01 64.3032 184.1 65.0308 181.19 66.486H176.388L182.063 73.0341C187.301 78.2727 190.502 81.6196 191.666 83.0747L194.721 87.0036V75.2169ZM54.1716 75.2169L55.9175 68.2321C55.3355 68.2321 52.4256 70.8514 47.1877 76.09C34.3841 88.0222 27.9822 104.756 27.9822 126.293C27.9822 130.076 28.1277 133.423 28.4187 136.333C28.7097 139.244 30.3102 143.609 33.2201 149.43C36.13 155.25 39.9129 160.343 44.5688 164.709C49.2247 169.074 56.2085 174.604 65.5203 181.298C74.832 187.991 86.1808 193.957 99.5664 199.196C130.703 212.001 152.964 225.098 166.349 238.485C179.735 251.873 186.428 268.898 186.428 289.561C186.428 299.456 185.264 307.168 182.936 312.698L181.19 318.81C182.936 318.81 187.737 314.881 195.594 307.023C207.816 295.673 213.927 280.83 213.927 262.495C213.927 249.981 211.744 239.213 207.379 230.191C201.85 220.005 195.303 211.71 187.737 205.308C179.589 197.159 170.714 190.465 161.111 185.226C151.509 179.988 139.578 174.604 125.319 169.074C111.061 163.545 98.9844 158.161 89.0907 152.922C69.8852 141.281 57.518 128.912 51.9891 115.816C50.2432 110.577 49.3702 104.902 49.3702 98.7904C49.3702 89.7684 50.9706 81.9106 54.1716 75.2169ZM32.7836 326.667C33.0746 326.667 35.257 326.231 39.3309 325.358C43.4048 324.485 46.3148 323.903 48.0607 323.612H51.9891L46.3148 317.5L32.3471 301.348C31.7651 301.348 31.4741 305.568 31.4741 314.008C31.4741 322.447 31.9106 326.667 32.7836 326.667Z" fill="white"/>
</svg>
